<svg width="22" height="19" viewBox="0 0 22 19" fill="none" xmlns="http://www.w3.org/2000/svg">
<path d="M14.1 4.2C14.1 5.91208 12.7121 7.3 11 7.3C9.28792 7.3 7.90001 5.91208 7.90001 4.2C7.90001 2.48792 9.28792 1.1 11 1.1C12.7121 1.1 14.1 2.48792 14.1 4.2ZM20.1 6.6C20.1 7.64934 19.2493 8.5 18.2 8.5C17.1507 8.5 16.3 7.64934 16.3 6.6C16.3 5.55066 17.1507 4.7 18.2 4.7C19.2493 4.7 20.1 5.55066 20.1 6.6ZM11 10.7C13.3748 10.7 15.3 12.6252 15.3 15V18.1H6.70001V15C6.70001 12.6252 8.62518 10.7 11 10.7ZM5.70001 6.6C5.70001 7.64934 4.84935 8.5 3.80001 8.5C2.75067 8.5 1.90001 7.64934 1.90001 6.6C1.90001 5.55066 2.75067 4.7 3.80001 4.7C4.84935 4.7 5.70001 5.55066 5.70001 6.6ZM18.7 18.1V15C18.7 13.8992 18.4687 12.8514 18.0519 11.9035C18.101 11.9012 18.1503 11.9 18.2 11.9C19.9121 11.9 21.3 13.2879 21.3 15V18.1H18.7ZM3.30001 15V18.1H0.700012V15C0.700012 13.2879 2.08793 11.9 3.80001 11.9C3.84968 11.9 3.89905 11.9012 3.9481 11.9035C3.53129 12.8514 3.30001 13.8992 3.30001 15Z" stroke="#9CA3AF"/>
</svg>
