<svg width="20" height="20" viewBox="0 0 20 20" fill="none" xmlns="http://www.w3.org/2000/svg">
<path d="M12.0322 7.49153C12.3036 7.80439 12.7773 7.83794 13.0902 7.56648C13.403 7.29501 13.4366 6.82132 13.1651 6.50847L12.0322 7.49153ZM7.96784 12.5085C7.69638 12.1956 7.22269 12.1621 6.90983 12.4335C6.59698 12.705 6.56342 13.1787 6.83489 13.4915L7.96784 12.5085ZM10.75 5C10.75 4.58579 10.4142 4.25 10 4.25C9.58579 4.25 9.25 4.58579 9.25 5H10.75ZM9.25 15C9.24999 15.4142 9.58577 15.75 9.99998 15.75C10.4142 15.75 10.75 15.4142 10.75 15L9.25 15ZM18.25 10C18.25 14.5563 14.5563 18.25 10 18.25V19.75C15.3848 19.75 19.75 15.3848 19.75 10H18.25ZM10 18.25C5.44365 18.25 1.75 14.5563 1.75 10H0.25C0.25 15.3848 4.61522 19.75 10 19.75V18.25ZM1.75 10C1.75 5.44365 5.44365 1.75 10 1.75V0.25C4.61522 0.25 0.25 4.61522 0.25 10H1.75ZM10 1.75C14.5563 1.75 18.25 5.44365 18.25 10H19.75C19.75 4.61522 15.3848 0.25 10 0.25V1.75ZM10 9.25C9.29899 9.25 8.69827 9.05922 8.2947 8.79018C7.8859 8.51764 7.75 8.2235 7.75 8H6.25C6.25 8.88107 6.78567 9.58693 7.46265 10.0383C8.14488 10.4931 9.04416 10.75 10 10.75V9.25ZM7.75 8C7.75 7.7765 7.8859 7.48236 8.2947 7.20982C8.69827 6.94078 9.29899 6.75 10 6.75V5.25C9.04416 5.25 8.14488 5.50693 7.46265 5.96175C6.78567 6.41307 6.25 7.11893 6.25 8H7.75ZM10 6.75C10.9554 6.75 11.6923 7.09978 12.0322 7.49153L13.1651 6.50847C12.4676 5.70461 11.2654 5.25 10 5.25V6.75ZM10 10.75C10.701 10.75 11.3017 10.9408 11.7053 11.2098C12.1141 11.4824 12.25 11.7765 12.25 12H13.75C13.75 11.1189 13.2143 10.4131 12.5374 9.96175C11.8551 9.50693 10.9558 9.25 10 9.25V10.75ZM9.25 5V6H10.75V5H9.25ZM9.25002 14L9.25 15L10.75 15L10.75 14L9.25002 14ZM10 13.25C9.04459 13.25 8.30776 12.9002 7.96784 12.5085L6.83489 13.4915C7.53239 14.2954 8.73463 14.75 10 14.75L10 13.25ZM12.25 12C12.25 12.2235 12.1141 12.5176 11.7053 12.7902C11.3018 13.0592 10.701 13.25 10 13.25V14.75C10.9559 14.75 11.8551 14.4931 12.5374 14.0383C13.2143 13.5869 13.75 12.8811 13.75 12H12.25ZM9.25 6L9.25002 14L10.75 14L10.75 6L9.25 6Z" fill="#9CA3AF"/>
</svg>
