<svg width="20" height="20" viewBox="0 0 20 20" fill="none" xmlns="http://www.w3.org/2000/svg">
<path d="M3.86293 14.3859L3.66188 14.8237L3.97644 15.1886C5.43319 16.8784 7.59186 17.95 9.99998 17.95C12.4081 17.95 14.5667 16.8784 16.0234 15.1887L16.338 14.8238L16.137 14.386C15.071 12.0646 12.7248 10.45 9.99992 10.45C7.2751 10.45 4.92894 12.0645 3.86293 14.3859ZM18.85 9.99999C18.85 14.8877 14.8877 18.85 10 18.85C5.1123 18.85 1.15002 14.8877 1.15002 9.99999C1.15002 5.11227 5.1123 1.14999 10 1.14999C14.8877 1.14999 18.85 5.11227 18.85 9.99999ZM10 9.54999C11.7397 9.54999 13.15 8.13969 13.15 6.39999C13.15 4.6603 11.7397 3.24999 10 3.24999C8.26031 3.24999 6.85001 4.6603 6.85001 6.39999C6.85001 8.13969 8.26031 9.54999 10 9.54999Z" stroke="#9CA3AF" stroke-width="1.5"/>
</svg>
